<svg xmlns="http://www.w3.org/2000/svg" width="584" height="164" viewBox="0 0 584 164"  fill="#1D2170">
  <defs>
    <linearGradient id="a" x2="1">
      <stop offset="0" stop-color="#bdd831"></stop>
      <stop offset=".36" stop-color="#bdd831"></stop>
      <stop offset=".72" stop-color="#1D2170"></stop>
      <stop offset="1" stop-color="#1D2170"></stop>
    </linearGradient>
    <linearGradient id="b" x2="1">
      <stop offset="0" stop-color="#1D2170"></stop>
      <stop offset=".28" stop-color="#1D2170"></stop>
      <stop offset=".64" stop-color="#bdd831"></stop>
      <stop offset="1" stop-color="#bdd831"></stop>
    </linearGradient>
  </defs>
  <path id="logo-letters" d="M119.735125 111.92c0 15.70375-5.805 28.27125-17.46 37.76375-11.6075 9.4775-27.02875 14.21375-46.31375 14.21375-18.78875 0-36.33-4.6825-52.61-13.98l11.5775-24.19125c15.81875 8.25 29.95375 12.3725 42.405 12.3725 18.05 0 27.0675-6.99625 27.0675-21.06125 0-9.66375-6.71375-16.29625-20.2025-19.9925l-17.0925-4.66125c-14.7675-4.0325-24.9575-10.54375-30.41375-19.5725-4.32625-7.0825-6.4575-14.965-6.4575-23.5375 0-14.0825 5.1075-25.59625 15.42625-34.43125 10.2975-8.91 23.565-13.3225 39.9175-13.3225 19.96375 0 37.12625 5.19 51.51125 15.51375l-14.6525 22.22c-13.035-7.8425-25.0675-11.775-35.98375-11.775-6.38625 0-11.5775 1.6775-15.575 5.03375-4.03 3.32875-5.99625 7.5975-5.99625 12.76125 0 4 1.24875 7.125 3.78125 9.43875 2.51125 2.30125 6.9525 4.335 13.34125 6.1025l18.66875 5.11875c26.0475 7.12375 39.06125 22.4175 39.06125 45.98625m131.8145 37.331625c-15.86 9.395-33.27375 14.08-52.28625 14.08-23.28875 0-41.18375-8.045-53.68875-24.0675-11.18875-14.31375-16.765-32.66625-16.765-55.04375 0-33.0425 10.9575-56.89 32.8475-71.57 11.00375-7.37625 23.78375-11.12 38.27375-11.12 19.475 0 36.1825 6.08125 50.0775 18.18375l-16.78125 19.67625c-9.95375-8.1325-20.94875-12.2425-32.8425-12.2425-9.50875 0-17.08 2.685-22.65875 7.9175-8.8775 8.63625-13.355 25.5875-13.355 50.77125 0 22.1825 3.9 37.1525 11.73375 44.8525 6.045 5.88625 14.29875 8.84375 24.73375 8.84375 6.96625 0 12.91-1.30625 17.885-3.85v-35.80125h-23.99625l-4.11625-25.8475h60.93875v75.2175zM389.99875 160.53575h-37.495l-27.76625-54.3875-27.55375 54.3875h-38.66l48.42375-82.6225L265.2 6.177h37.9975l20.8375 41.55 21.14-41.55h37.09l-40.17875 69.7325 47.9125 84.62625z"></path>
  <path d="M418 0h164v164h-164v-164" id="logo-box" style="fill: rgb(255, 255, 255);"></path>
  <path fill="url(#a)" d="M420 2h160v32h-160v-32"></path>
  <path fill="url(#b)" d="M420 34h160v32h-160v-32"></path>
  <path fill="url(#a)" d="M420 66h160v32h-160v-32"></path>
  <path fill="url(#b)" d="M420 98h160v32h-160v-32"></path>
  <path fill="url(#a)" d="M420 130h160v32h-160v-32"></path>
</svg>